<svg width="412" height="165" viewBox="0 0 412 165" fill="none" xmlns="http://www.w3.org/2000/svg">
<g clip-path="url(#clip0)">
<rect width="412" height="165" fill="white"/>
<path d="M30.6887 2.352V13.152H14.8487V151.824H30.6887V162.624H2.46468V2.352H30.6887ZM149.356 38.208V138H136.252V58.368L104.428 138H92.7639L60.7959 58.656V138H47.6919V38.208H63.3879L98.8119 122.016L133.66 38.208H149.356ZM206.173 57.936C213.757 57.936 220.525 59.568 226.477 62.832C232.525 66.096 237.229 70.8 240.589 76.944C244.045 83.088 245.773 90.288 245.773 98.544C245.773 106.8 244.045 114 240.589 120.144C237.229 126.192 232.525 130.848 226.477 134.112C220.525 137.376 213.757 139.008 206.173 139.008C198.589 139.008 191.773 137.376 185.725 134.112C179.773 130.848 175.069 126.192 171.613 120.144C168.157 114 166.429 106.8 166.429 98.544C166.429 90.288 168.157 83.088 171.613 76.944C175.069 70.8 179.773 66.096 185.725 62.832C191.773 59.568 198.589 57.936 206.173 57.936ZM206.173 69.456C201.469 69.456 197.101 70.512 193.069 72.624C189.133 74.736 185.917 78 183.421 82.416C181.021 86.736 179.821 92.112 179.821 98.544C179.821 104.88 181.021 110.256 183.421 114.672C185.917 118.992 189.133 122.208 193.069 124.32C197.101 126.432 201.469 127.488 206.173 127.488C210.877 127.488 215.197 126.432 219.133 124.32C223.165 122.208 226.381 118.992 228.781 114.672C231.277 110.256 232.525 104.88 232.525 98.544C232.525 92.112 231.277 86.736 228.781 82.416C226.381 78 223.165 74.736 219.133 72.624C215.197 70.512 210.877 69.456 206.173 69.456ZM364.512 38.208V138H351.408V58.368L319.584 138H307.92L275.952 58.656V138H262.848V38.208H278.544L313.968 122.016L348.816 38.208H364.512ZM381.441 162.624V151.824H397.281V13.152H381.441V2.352H409.665V162.624H381.441Z" fill="#372929"/>
</g>
<defs>
<clipPath id="clip0">
<rect width="412" height="165" fill="white"/>
</clipPath>
</defs>
</svg>
