<svg width="204" height="81" viewBox="0 0 204 81" fill="none" xmlns="http://www.w3.org/2000/svg">
<g clip-path="url(#clip0)">
<path d="M11.1365 0.0644989V4.2405H4.80047V76.4565H11.1365V80.7045H0.0484689V0.0644989H11.1365ZM72.854 17.6325V67.3125H67.814V27.6405L50.102 67.3125H46.43L28.718 27.7845V67.3125H23.678V17.6325H29.006L48.23 60.6885L67.454 17.6325H72.854ZM101.495 67.8885C97.7993 67.8885 94.4633 67.0725 91.4873 65.4405C88.5593 63.7605 86.2313 61.4085 84.5033 58.3845C82.8233 55.3125 81.9833 51.7365 81.9833 47.6565C81.9833 43.5765 82.8473 40.0245 84.5753 37.0005C86.3033 33.9285 88.6553 31.5765 91.6313 29.9445C94.6073 28.2645 97.9433 27.4245 101.639 27.4245C105.335 27.4245 108.671 28.2645 111.647 29.9445C114.671 31.5765 117.023 33.9285 118.703 37.0005C120.431 40.0245 121.295 43.5765 121.295 47.6565C121.295 51.6885 120.431 55.2405 118.703 58.3125C116.975 61.3845 114.599 63.7605 111.575 65.4405C108.551 67.0725 105.191 67.8885 101.495 67.8885ZM101.495 63.4965C104.087 63.4965 106.487 62.9205 108.695 61.7685C110.903 60.5685 112.679 58.7925 114.023 56.4405C115.415 54.0405 116.111 51.1125 116.111 47.6565C116.111 44.2005 115.439 41.2965 114.095 38.9445C112.751 36.5445 110.975 34.7685 108.767 33.6165C106.559 32.4165 104.159 31.8165 101.567 31.8165C98.9753 31.8165 96.5753 32.4165 94.3673 33.6165C92.1593 34.7685 90.3833 36.5445 89.0393 38.9445C87.7433 41.2965 87.0953 44.2005 87.0953 47.6565C87.0953 51.1125 87.7433 54.0405 89.0393 56.4405C90.3833 58.7925 92.1353 60.5685 94.2953 61.7685C96.5033 62.9205 98.9033 63.4965 101.495 63.4965ZM179.659 17.6325V67.3125H174.619V27.6405L156.907 67.3125H153.235L135.523 27.7845V67.3125H130.483V17.6325H135.811L155.035 60.6885L174.259 17.6325H179.659ZM203.188 80.7045H192.1V76.4565H198.436V4.2405H192.1V0.0644989H203.188V80.7045Z" fill="#372929"/>
</g>
<defs>
<clipPath id="clip0">
<rect width="204" height="81" fill="white"/>
</clipPath>
</defs>
</svg>
